<svg xmlns="http://www.w3.org/2000/svg" viewBox="0 0 536.06 55.81"><defs><style>.cls-1{fill:#191d25;}.cls-2{fill:#2d3242;}.cls-3{fill:#505d75;}</style></defs><g id="Calque_2" data-name="Calque 2"><g id="Calque_1-2" data-name="Calque 1"><path class="cls-1" d="M42.64,42.2H15a1.49,1.49,0,1,1,0-3H42.64a1.49,1.49,0,1,1,0,3Z"/><path class="cls-1" d="M42.65,42.2a1.51,1.51,0,0,1-1.35-.85L26,9.17a1.49,1.49,0,0,1,2.69-1.28L44,40.07a1.49,1.49,0,0,1-.71,2A1.56,1.56,0,0,1,42.65,42.2Z"/><path class="cls-1" d="M15,42.2a1.49,1.49,0,0,1-1.24-2.3l16-24.74a1.51,1.51,0,0,1,1.25-.68H58.76a1.49,1.49,0,0,1,1.31.78A1.5,1.5,0,0,1,60,16.78L43.89,41.52A1.49,1.49,0,1,1,41.4,39.9L56,17.45H31.75L16.22,41.52A1.48,1.48,0,0,1,15,42.2Z"/><path class="cls-1" d="M72,42.84A1.47,1.47,0,0,1,70.62,42L50.93,2.15A1.49,1.49,0,1,1,53.6.83L73.28,40.7a1.48,1.48,0,0,1-.67,2A1.55,1.55,0,0,1,72,42.84Z"/><path class="cls-1" d="M32.68,9.22H22.07a1.49,1.49,0,1,1,0-3H32.68a1.49,1.49,0,1,1,0,3Z"/><path class="cls-1" d="M52.27,3H47a1.49,1.49,0,0,1,0-3h5.31a1.49,1.49,0,0,1,0,3Z"/><path class="cls-1" d="M15,55.69a15,15,0,1,1,15-15A15,15,0,0,1,15,55.69Zm0-27a12,12,0,1,0,12,12A12,12,0,0,0,15,28.71Z"/><path class="cls-1" d="M72,55.69a15,15,0,1,1,15-15A15,15,0,0,1,72,55.69Zm0-27a12,12,0,1,0,12,12A12,12,0,0,0,72,28.71Z"/><path class="cls-2" d="M137.25,55h-5.36a.77.77,0,0,1-.85-.59l-3.23-11.48c-.08-.42-.42-.51-.85-.51h-15.3c-.42,0-.76.09-.85.51l-3.23,11.48a.76.76,0,0,1-.85.59H101.8c-.76,0-1-.42-.85-1.1L116.76,2a.77.77,0,0,1,.85-.6h3.91a.76.76,0,0,1,.85.6L138.1,53.86C138.27,54.54,138,55,137.25,55ZM120.76,16.54c-.77-3.06-1.19-6.12-1.19-6.12h-.26A56.91,56.91,0,0,1,118,16.54l-5.1,18.87a.79.79,0,0,0,.85,1.11h11a.79.79,0,0,0,.85-1.11Z"/><path class="cls-2" d="M174.56,55H146.17c-.59,0-.85-.25-.85-.85V2.26c0-.59.26-.85.85-.85h4.93c.6,0,.85.26.85.85v46c0,.59.26.85.85.85h21.76c.6,0,.85.25.85.85v4.16C175.41,54.71,175.16,55,174.56,55Z"/><path class="cls-2" d="M211.62,55H183.23c-.6,0-.85-.25-.85-.85V2.26c0-.59.25-.85.85-.85h4.93c.6,0,.85.26.85.85v46c0,.59.26.85.85.85h21.76c.6,0,.85.25.85.85v4.16C212.47,54.71,212.22,55,211.62,55Z"/><path class="cls-2" d="M248.68,55H220.29c-.6,0-.85-.25-.85-.85V2.26c0-.59.25-.85.85-.85h28.39c.6,0,.85.26.85.85V6.43c0,.59-.25.85-.85.85H226.92c-.6,0-.85.25-.85.85V24c0,.6.25.85.85.85h17.85c.6,0,.85.26.85.85v4.17c0,.59-.25.85-.85.85H226.92c-.6,0-.85.25-.85.85V48.25c0,.59.25.85.85.85h21.76c.6,0,.85.25.85.85v4.16C249.53,54.71,249.28,55,248.68,55Z"/><path class="cls-2" d="M284.3,55H255.05c-.76,0-1.1-.51-.76-1.19l20-45.3c.35-.68,0-1.19-.76-1.19H255.9c-.59,0-.85-.26-.85-.85V2.26c0-.59.26-.85.85-.85h27.38c.76,0,1.1.51.76,1.19L263.89,47.91c-.34.68,0,1.19.77,1.19H284.3c.59,0,.85.25.85.85v4.16C285.15,54.71,284.89,55,284.3,55Z"/><path class="cls-3" d="M311,30.74H300.87c-.6,0-.85.25-.85.85V54.11c0,.6-.26.85-.85.85h-4.93c-.6,0-.85-.25-.85-.85V2.26c0-.59.25-.85.85-.85H311c9.18,0,15,6,15,15.05C326,24.53,320.17,30.74,311,30.74Zm8.41-15.13A8.41,8.41,0,0,0,311,7.28H300.87c-.6,0-.85.25-.85.85V24c0,.6.25.85.85.85H311a8.43,8.43,0,0,0,8.41-8.41Z"/><path class="cls-3" d="M349.49,55.81h-2.64c-9.18,0-15-5.78-15-14.19V14.76c0-8.33,5.86-14.2,15-14.2h2.64c9.18,0,15,5.78,15,14.2V41.62C364.53,50,358.67,55.81,349.49,55.81Zm8.33-41.05a8.34,8.34,0,0,0-8.33-8.33h-2.64a8.29,8.29,0,0,0-8.33,8.33V41.62A8.35,8.35,0,0,0,346.85,50h2.64a8.4,8.4,0,0,0,8.33-8.33Z"/><path class="cls-3" d="M393.43,55.81H390.8c-9.18,0-15.05-5.78-15.05-14.19V2.26c0-.59.26-.85.85-.85h5c.59,0,.85.26.85.85V41.62A8.34,8.34,0,0,0,390.8,50h2.63a8.4,8.4,0,0,0,8.33-8.33V2.26c0-.59.26-.85.85-.85h5c.59,0,.85.26.85.85V41.62C408.48,50,402.61,55.81,393.43,55.81Z"/><path class="cls-3" d="M438.57,30.74H428.45c-.59,0-.85.25-.85.85V54.11c0,.6-.25.85-.85.85h-4.93c-.59,0-.85-.25-.85-.85V2.26c0-.59.26-.85.85-.85h16.75c9.18,0,15,6,15,15.05C453.61,24.53,447.75,30.74,438.57,30.74ZM447,15.61a8.41,8.41,0,0,0-8.41-8.33H428.45c-.59,0-.85.25-.85.85V24c0,.6.26.85.85.85h10.12A8.43,8.43,0,0,0,447,16.46Z"/><path class="cls-3" d="M477.07,55.81h-2.63c-9.18,0-15.05-5.78-15.05-14.19V14.76c0-8.33,5.87-14.2,15.05-14.2h2.63c9.18,0,15.05,5.78,15.05,14.2V41.62C492.12,50,486.25,55.81,477.07,55.81Zm8.33-41.05a8.34,8.34,0,0,0-8.33-8.33h-2.63a8.29,8.29,0,0,0-8.33,8.33V41.62A8.34,8.34,0,0,0,474.44,50h2.63a8.4,8.4,0,0,0,8.33-8.33Z"/><path class="cls-3" d="M521,55.81h-2.64c-9.18,0-15-5.78-15-14.19V2.26c0-.59.25-.85.85-.85h5c.6,0,.85.26.85.85V41.62A8.35,8.35,0,0,0,518.38,50H521a8.4,8.4,0,0,0,8.33-8.33V2.26c0-.59.25-.85.85-.85h5c.6,0,.85.26.85.85V41.62C536.06,50,530.2,55.81,521,55.81Z"/></g></g></svg>